  <svg
          preserveAspectRatio="xMidYMid meet"
          data-bbox="0 0 375.547 93.752"
          viewBox="0 0 375.547 93.752"
          height="93.752"
          width="375.546"
          xmlns="http://www.w3.org/2000/svg"
          data-type="color"
          role="presentation"
          aria-hidden="true"
        >
          <g>
            <defs>
              <clipPath id="svgcid-7l40j8gr6g8v">
                <path d="M375.546 0v93.752H0V0h375.546z"></path>
              </clipPath>
            </defs>
            <g>
              <g clip-path="url(#svgcid-7l40j8gr6g8v)">
                <path
                  fill="#f2f2f2"
                  d="M0 23.438v46.876l40.6 23.438 40.6-23.438V23.438L40.6 0zm57.609 36.427L43.875 73.6a2.931 2.931 0 0 0-.633-.074L25.258 43.291a4.552 4.552 0 0 0 1.064-2.931 4.609 4.609 0 0 0-.041-.61L47.446 29.1a3.381 3.381 0 0 0 1.621.664l9.339 26.7a3.4 3.4 0 0 0-.8 3.4M40.2 74.364l-35.742-6.2 16.079-23.4a4.6 4.6 0 0 0 2.1.079zm5.909-48L25.11 36.929 40.368 6.034l6.644 18.045a3.385 3.385 0 0 0-.908 2.282m-23.843 9.457a4.621 4.621 0 0 0-.509-.028 4.549 4.549 0 0 0-2.417.691L4.856 24.938l31.863-18.4zm-4.828 3.043a4.577 4.577 0 0 0 .6 4.16L3.727 63.842V27.935zm23.054 38.646a2.934 2.934 0 0 0 .782 1.131L39.5 88.818 11.077 72.405zm3.778 1.685a2.933 2.933 0 0 0 1.794-3.468L59.74 62.043a3.4 3.4 0 0 0 3.008-.4l13.176 7.405L42.7 88.235zm19.976-20.2v-.16a3.4 3.4 0 0 0-2.963-3.37l-9.339-26.7a3.4 3.4 0 0 0 .688-1.034l24.834-1.562v40.256zM52.438 24.68a3.4 3.4 0 0 0-2.571-1.668L43.621 6.05l29.964 17.3z"
                  data-color="1"
                ></path>
                <path
                  fill="#f2f2f2"
                  d="M94.944 19.477h11.813v32.344h8.3V19.477h11.813v-6.985H94.948z"
                  data-color="1"
                ></path>
                <path
                  fill="#f2f2f2"
                  d="M145.031 12.493v39.329h-8.156V12.493h8.156z"
                  data-color="1"
                ></path>
                <path
                  fill="#f2f2f2"
                  d="M155.541 19.477h11.813v32.344h8.3V19.477h11.813v-6.985h-31.922z"
                  data-color="1"
                ></path>
                <path
                  fill="#f2f2f2"
                  d="m267.8 39.954-15.723-27.461h-8.559v39.329h7.594V23.849l16.125 27.973h8.156V12.493h-7.594z"
                  data-color="1"
                ></path>
                <path
                  fill="#f2f2f2"
                  d="M319.43 15.905q-4.456-4.584-12.884-4.584t-12.883 4.584q-5.974 5.411-5.974 16.205 0 10.582 5.974 16.205 4.453 4.585 12.883 4.584t12.884-4.584q5.946-5.623 5.947-16.205 0-10.794-5.947-16.205m-5.086 26.42a9.433 9.433 0 0 1-7.771 3.59 9.546 9.546 0 0 1-7.812-3.59q-2.917-3.59-2.915-10.215t2.915-10.214a9.546 9.546 0 0 1 7.812-3.591 9.421 9.421 0 0 1 7.771 3.6q2.877 3.6 2.877 10.2 0 6.624-2.877 10.215"
                  data-color="1"
                ></path>
                <path
                  fill="#f2f2f2"
                  d="m363.767 12.586-7.136 30.924-7.189-30.924h-11.913v39.329h7.595v-26.6q0-1.147-.027-3.215t-.026-3.188l7.43 33.005h8.021l7.483-33.005q0 1.121-.025 3.188c-.02 1.378-.026 2.451-.026 3.215v26.6h7.593V12.586z"
                  data-color="1"
                ></path>
                <path
                  fill="#f2f2f2"
                  d="M209.351 12.681 195.303 52.01h8.588l2.66-8.063 9.552-.047-2.176-6.8-5.131.047 5.107-15.478 4.956 15.478 2.178 6.8 2.582 8.063h8.913l-13.887-39.329z"
                  data-color="1"
                ></path>
              </g>
            </g>
            <path
              fill="#ff0084"
              d="M132.451 65.199h-3.758v-1.357h9.146v1.357h-3.776v11h-1.613z"
              data-color="2"
            ></path>
            <path
              fill="#ff0084"
              d="M151.2 70.405h-4.8v4.454h5.352v1.338h-6.946V63.843h6.672v1.338H146.4v3.9h4.8z"
              data-color="2"
            ></path>
            <g>
              <g clip-path="url(#svgcid-7l40j8gr6g8v)">
                <path
                  fill="#ff0084"
                  d="M168.045 75.792a7.915 7.915 0 0 1-3.263.587c-3.482 0-6.1-2.2-6.1-6.25a6.147 6.147 0 0 1 6.452-6.488 6.615 6.615 0 0 1 2.932.55l-.385 1.3a5.806 5.806 0 0 0-2.493-.513c-2.9 0-4.82 1.851-4.82 5.1 0 3.024 1.741 4.967 4.747 4.967a6.389 6.389 0 0 0 2.6-.513z"
                  data-color="2"
                ></path>
                <path
                  fill="#ff0084"
                  d="M177.226 63.842v5.168h5.975v-5.168h1.613v12.354h-1.608v-5.79h-5.975v5.792h-1.6V63.844z"
                  data-color="2"
                ></path>
                <path
                  fill="#ff0084"
                  d="M193.171 76.196V63.842h1.742l3.958 6.25a34.965 34.965 0 0 1 2.218 4.014l.037-.019c-.146-1.65-.184-3.153-.184-5.078v-5.168h1.5v12.354h-1.612l-3.922-6.268a39 39 0 0 1-2.31-4.124l-.056.018c.092 1.558.129 3.042.129 5.1v5.278z"
                  data-color="2"
                ></path>
                <path
                  fill="#ff0084"
                  d="M221.38 69.89c0 4.252-2.584 6.507-5.738 6.507-3.262 0-5.553-2.529-5.553-6.269 0-3.922 2.438-6.488 5.737-6.488 3.371 0 5.554 2.584 5.554 6.25m-9.586.2c0 2.639 1.43 5 3.94 5 2.529 0 3.959-2.328 3.959-5.132 0-2.456-1.283-5.022-3.94-5.022-2.641 0-3.959 2.438-3.959 5.15"
                  data-color="2"
                ></path>
                <path
                  fill="#ff0084"
                  d="M229.04 63.842h1.594v11.015h5.278v1.338h-6.872z"
                  data-color="2"
                ></path>
                <path
                  fill="#ff0084"
                  d="M253.836 69.89c0 4.252-2.583 6.507-5.736 6.507-3.262 0-5.553-2.529-5.553-6.269 0-3.922 2.437-6.488 5.736-6.488 3.372 0 5.553 2.584 5.553 6.25m-9.585.2c0 2.639 1.43 5 3.941 5 2.528 0 3.958-2.328 3.958-5.132 0-2.456-1.282-5.022-3.941-5.022-2.639 0-3.958 2.438-3.958 5.15"
                  data-color="2"
                ></path>
                <path
                  fill="#ff0084"
                  d="M270.902 75.646a11.507 11.507 0 0 1-3.795.678 5.8 5.8 0 0 1-6.341-6.232c.018-3.684 2.548-6.378 6.69-6.378a7.645 7.645 0 0 1 3.079.568l-.386 1.3a6.4 6.4 0 0 0-2.731-.532 4.621 4.621 0 0 0-4.967 4.967c0 3.134 1.889 4.986 4.767 4.986a5.193 5.193 0 0 0 2.126-.331v-3.684h-2.511v-1.283h4.068z"
                  data-color="2"
                ></path>
                <path
                  fill="#ff0084"
                  d="M280.525 63.842v12.354h-1.595V63.842h1.595z"
                  data-color="2"
                ></path>
                <path
                  fill="#ff0084"
                  d="M295.298 70.405h-4.8v4.454h5.353v1.338h-6.948V63.843h6.673v1.338h-5.077v3.9h4.8z"
                  data-color="2"
                ></path>
                <path
                  fill="#ff0084"
                  d="M303.288 74.252a5.648 5.648 0 0 0 2.858.807c1.632 0 2.586-.862 2.586-2.108 0-1.155-.66-1.815-2.328-2.456-2.017-.715-3.263-1.76-3.263-3.5 0-1.925 1.6-3.354 4-3.354a5.616 5.616 0 0 1 2.731.6l-.44 1.3a4.919 4.919 0 0 0-2.346-.586c-1.686 0-2.329 1.008-2.329 1.851 0 1.155.753 1.723 2.457 2.383 2.091.806 3.153 1.815 3.153 3.629 0 1.906-1.411 3.556-4.326 3.556a6.384 6.384 0 0 1-3.152-.788z"
                  data-color="2"
                ></path>
              </g>
            </g>
          </g>
        </svg>